<svg xmlns="http://www.w3.org/2000/svg" xmlns:xlink="http://www.w3.org/1999/xlink" version="1.1" x="0px" y="0px" viewBox="0 0 140 175" style="enable-background:new 0 0 140 140;" xml:space="preserve"><g><g><g><g><g><g><path d="M103.75,135H6c-0.5527344,0-1-0.4472656-1-1V20.2099609c0-0.5527344,0.4472656-1,1-1h25.8300781        c0.5527344,0,1,0.4472656,1,1s-0.4472656,1-1,1H7V133h95.75V21.2099609H77.9199219c-0.5527344,0-1-0.4472656-1-1        s0.4472656-1,1-1H103.75c0.5527344,0,1,0.4472656,1,1V134C104.75,134.5527344,104.3027344,135,103.75,135z"/></g><g><path d="M97.75,129H12c-0.5527344,0-1-0.4472656-1-1V26.2099609c0-0.5527344,0.4472656-1,1-1h18.5800781        c0.5527344,0,1,0.4472656,1,1s-0.4472656,1-1,1H13V127h83.75V27.2099609H79.1699219c-0.5527344,0-1-0.4472656-1-1        s0.4472656-1,1-1H97.75c0.5527344,0,1,0.4472656,1,1V128C98.75,128.5527344,98.3027344,129,97.75,129z"/></g><g><g><g><path d="M54.875,85.3115234c-13.5849609,0-26.3378906-6.9697266-35.9111328-19.6240234          c-0.2695312-0.3574219-0.2695312-0.8496094,0-1.2070312C28.5371094,51.8261719,41.2900391,44.8564453,54.875,44.8564453          s26.3378906,6.9697266,35.9111328,19.6240234c0.2695312,0.3574219,0.2695312,0.8496094,0,1.2070312          C81.2128906,78.3417969,68.4599609,85.3115234,54.875,85.3115234z M21.0214844,65.0839844          C30.1513672,76.8457031,42.1474609,83.3115234,54.875,83.3115234s24.7236328-6.4658203,33.8535156-18.2275391          C79.5986328,53.3222656,67.6025391,46.8564453,54.875,46.8564453S30.1513672,53.3222656,21.0214844,65.0839844z"/></g><g><path d="M54.875,80.6210938c-8.5673828,0-15.5371094-6.9697266-15.5371094-15.5371094          S46.3076172,49.546875,54.875,49.546875s15.5371094,6.9697266,15.5371094,15.5371094          S63.4423828,80.6210938,54.875,80.6210938z M54.875,51.546875c-7.4648438,0-13.5371094,6.0722656-13.5371094,13.5371094          S47.4101562,78.6210938,54.875,78.6210938s13.5371094-6.0722656,13.5371094-13.5371094          S62.3398438,51.546875,54.875,51.546875z"/></g></g></g></g></g><g><path d="M78.3798828,32.1396484H31.3701172c-0.4296875,0-0.8115234-0.2744141-0.9482422-0.6816406      c-0.5693359-1.6982422-0.8525391-3.4658203-0.8417969-5.2539062c0.0097656-2.1992188,0.4707031-4.4101562,1.3330078-6.3925781      c1.9882812-4.5791016,5.8701172-7.6464844,10.3837891-8.2041016l4.3789062-0.5419922L49.1826172,5.46875      C49.3662109,5.1767578,49.6855469,5,50.0302734,5h9.6894531c0.3447266,0,0.6640625,0.1767578,0.8476562,0.46875      l3.5068359,5.5966797l4.3789062,0.5419922c4.5136719,0.5576172,8.3955078,3.625,10.3837891,8.2041016      c0.8623047,1.9824219,1.3232422,4.1933594,1.3330078,6.3935547c0.0107422,1.7880859-0.2724609,3.5546875-0.8417969,5.2529297      C79.1914062,31.8652344,78.8095703,32.1396484,78.3798828,32.1396484z M32.1083984,30.1396484h45.5332031      c0.3583984-1.2773438,0.5361328-2.59375,0.5283203-3.9238281v-0.0009766      c-0.0087891-1.9316406-0.4121094-3.8701172-1.1669922-5.6064453c-1.7041016-3.9238281-4.9921875-6.5458984-8.7958984-7.0166016      l-4.8505859-0.5996094c-0.2978516-0.0371094-0.5644531-0.2060547-0.7246094-0.4609375L59.1660156,7h-8.5820312      l-3.4658203,5.53125c-0.1601562,0.2548828-0.4267578,0.4238281-0.7246094,0.4609375l-4.8505859,0.5996094      c-3.8037109,0.4707031-7.0917969,3.0927734-8.7958984,7.0166016c-0.7548828,1.7363281-1.1582031,3.6748047-1.1669922,5.6064453      C31.5722656,27.5449219,31.75,28.8623047,32.1083984,30.1396484z"/></g><g><g><path d="M35.5429688,116.1025391H19.2685547c-0.5527344,0-1-0.4472656-1-1V98.828125c0-0.5527344,0.4472656-1,1-1h16.2744141       c0.5527344,0,1,0.4472656,1,1v16.2744141C36.5429688,115.6552734,36.0957031,116.1025391,35.5429688,116.1025391z        M20.2685547,114.1025391h14.2744141V99.828125H20.2685547V114.1025391z"/></g><g><path d="M25.6220703,110.6884766c-0.2558594,0-0.5117188-0.0976562-0.7070312-0.2929688l-1.8789062-1.8789062       c-0.390625-0.390625-0.390625-1.0234375,0-1.4140625s1.0234375-0.390625,1.4140625,0l1.171875,1.171875l4.7392578-4.7392578       c0.390625-0.390625,1.0234375-0.390625,1.4140625,0s0.390625,1.0234375,0,1.4140625l-5.4462891,5.4462891       C26.1337891,110.5908203,25.8779297,110.6884766,25.6220703,110.6884766z"/></g><g><path d="M90.4814453,102.8867188H41.8212891c-0.5527344,0-1-0.4472656-1-1s0.4472656-1,1-1h48.6601562       c0.5527344,0,1,0.4472656,1,1S91.0341797,102.8867188,90.4814453,102.8867188z"/></g><g><path d="M90.4814453,113.0439453H41.8212891c-0.5527344,0-1-0.4472656-1-1s0.4472656-1,1-1h48.6601562       c0.5527344,0,1,0.4472656,1,1S91.0341797,113.0439453,90.4814453,113.0439453z"/></g></g></g><g><path d="M45.3378906,66.0839844c-0.5527344,0-1-0.4472656-1-1c0-5.8105469,4.7265625-10.5371094,10.5371094-10.5371094     c0.5527344,0,1,0.4472656,1,1s-0.4472656,1-1,1c-4.7070312,0-8.5371094,3.8300781-8.5371094,8.5371094     C46.3378906,65.6367188,45.890625,66.0839844,45.3378906,66.0839844z"/></g></g><g><g><g><path d="M126.1796875,135c-0.3955078,0-0.7529297-0.2324219-0.9140625-0.59375l-7.8203125-17.5927734      c-0.0566406-0.1279297-0.0859375-0.2666016-0.0859375-0.40625V52.6386719c0-2.5634766,1.8125-4.6484375,4.0410156-4.6484375      h9.5585938C133.1875,47.9902344,135,50.0751953,135,52.6386719v63.7685547c0,0.1396484-0.0292969,0.2783203-0.0859375,0.40625      L127.09375,134.40625C126.9326172,134.7675781,126.5751953,135,126.1796875,135z M119.359375,116.1953125l6.8203125,15.3427734      L133,116.1953125V52.6386719c0-1.4599609-0.9160156-2.6484375-2.0410156-2.6484375h-9.5585938      c-1.125,0-2.0410156,1.1884766-2.0410156,2.6484375V116.1953125z M134,116.4072266h0.0097656H134z"/></g><g><path d="M134,117.4072266h-15.640625c-0.5527344,0-1-0.4472656-1-1s0.4472656-1,1-1H134c0.5527344,0,1,0.4472656,1,1      S134.5527344,117.4072266,134,117.4072266z"/></g><g><path d="M126.1796875,117.4072266c-0.5527344,0-1-0.4472656-1-1V60.5449219c0-0.5527344,0.4472656-1,1-1s1,0.4472656,1,1      v55.8623047C127.1796875,116.9599609,126.7324219,117.4072266,126.1796875,117.4072266z"/></g></g><g><path d="M134,61.5449219h-15.640625c-0.5527344,0-1-0.4472656-1-1s0.4472656-1,1-1H134c0.5527344,0,1,0.4472656,1,1     S134.5527344,61.5449219,134,61.5449219z"/></g></g></g></svg>
